<svg version="1.1" id="Layer_1" xmlns="http://www.w3.org/2000/svg" xmlns:xlink="http://www.w3.org/1999/xlink" x="0px" y="0px"
	 width="100%" viewBox="0 0 1024 1024" enable-background="new 0 0 1024 1024" xml:space="preserve">
<path fill="#000000" opacity="1.000000" stroke="none" 
	d="
M376.052063,252.026367 
	C387.328064,242.133850 400.238556,237.682755 414.797577,237.683258 
	C540.130798,237.687668 665.464050,237.671204 790.797241,237.691650 
	C819.005981,237.696259 841.800232,258.016998 845.466614,286.041931 
	C846.009766,290.193695 846.316162,294.305664 846.310791,298.467529 
	C846.194031,389.799896 846.132935,481.132446 845.893677,572.464478 
	C845.862793,584.257019 845.531555,596.104126 839.103943,606.792297 
	C828.084412,625.116272 812.266174,634.987366 790.675476,635.063965 
	C758.675842,635.177490 726.676025,635.267761 694.676331,635.366821 
	C687.409729,635.389343 686.733459,636.225098 688.289124,643.121826 
	C691.726135,658.358398 695.252625,673.576233 698.502197,688.852783 
	C699.432861,693.227783 701.451294,694.857483 705.988647,694.773865 
	C719.317200,694.527832 732.653687,694.733704 745.986816,694.692139 
	C749.535522,694.681091 752.962158,695.219788 756.242859,696.500977 
	C762.384155,698.899475 766.495239,704.835388 766.215759,710.714050 
	C765.923767,716.854309 761.112793,722.503418 754.590881,724.194458 
	C751.689148,724.946838 748.729553,725.304260 745.696411,725.290771 
	C725.696838,725.201721 705.696350,725.104187 685.697388,725.220642 
	C681.175842,725.247009 678.636292,723.649170 677.273499,719.257507 
	C671.302734,700.015991 667.369812,680.279236 662.752380,660.708252 
	C661.149536,653.914856 659.289612,647.175598 657.914612,640.337646 
	C657.125061,636.411499 655.090027,635.186646 651.310181,635.302917 
	C644.816406,635.502686 638.311340,635.301331 631.812439,635.382935 
	C628.448120,635.425171 626.872253,636.703979 628.273865,640.448120 
	C638.135437,666.792053 646.239563,693.729492 655.064453,720.422729 
	C660.808472,737.797241 666.145081,755.306885 671.594482,772.777771 
	C672.182312,774.662354 672.505432,776.681274 672.610962,778.656067 
	C673.252319,790.649963 663.640869,798.363525 652.263184,794.403076 
	C638.905701,789.753418 625.796082,784.388306 612.598328,779.283386 
	C586.819153,769.312073 561.131531,759.097046 535.243835,749.416626 
	C524.826294,745.521118 516.117432,739.565491 508.343719,731.792053 
	C432.685944,656.137390 357.001129,580.509705 281.271851,504.926544 
	C251.900528,475.611938 222.625656,446.194489 192.868820,417.274597 
	C174.088730,399.022797 173.392059,366.684326 185.970459,350.282745 
	C187.384796,348.438507 188.929443,346.675507 190.559738,345.018616 
	C202.014297,333.377136 213.662674,321.922211 224.953659,310.124878 
	C245.047394,289.129974 280.428741,286.742737 302.813141,310.881805 
	C319.005463,328.343353 336.229614,344.848053 352.991577,361.781464 
	C353.911682,362.710938 354.692505,363.843933 356.205536,363.973633 
	C358.374298,362.321381 357.641907,359.987579 357.647766,357.957825 
	C357.708435,336.958008 357.820343,315.957001 357.656281,294.958344 
	C357.524017,278.029572 363.097748,263.673584 376.052063,252.026367 
M567.500061,267.329010 
	C517.017639,267.338287 466.535156,267.312897 416.052765,267.375488 
	C398.122437,267.397705 387.384979,278.157806 387.363464,295.979156 
	C387.325836,327.134857 387.495178,358.291931 387.219818,389.445221 
	C387.169464,395.140137 389.051147,399.134766 392.926208,403.007538 
	C433.105896,443.163361 473.201782,483.403168 513.241943,523.698120 
	C515.710815,526.182678 518.341797,527.010254 521.685242,527.028259 
	C544.829285,527.152954 567.972534,527.524597 591.116455,527.554016 
	C635.429138,527.610413 679.741394,527.748901 724.054626,527.160095 
	C752.706421,526.779419 781.366638,526.942749 810.022339,527.056458 
	C814.363281,527.073669 815.771423,525.719666 815.811157,521.338745 
	C816.135132,485.692291 815.908386,450.045380 816.460510,414.396118 
	C817.082397,374.252930 816.662048,334.093353 816.665283,293.940918 
	C816.666565,278.174683 805.736877,267.332825 789.922485,267.332275 
	C716.115051,267.329590 642.307556,267.330505 567.500061,267.329010 
M587.413574,597.106384 
	C592.335754,603.732239 598.600403,605.973633 607.107300,605.918640 
	C668.221130,605.523926 729.338684,605.705505 790.455017,605.682251 
	C805.056641,605.676697 815.606323,595.183350 815.688965,580.648682 
	C815.723022,574.653870 815.716858,568.658569 815.693054,562.663574 
	C815.668457,556.479187 815.481934,556.017395 809.110779,556.457764 
	C796.636169,557.320007 784.160400,556.767639 771.693054,556.815063 
	C700.419983,557.086243 629.146057,557.114197 557.872437,557.263733 
	C555.799622,557.268066 553.037842,556.345154 551.905701,558.622864 
	C550.540771,561.368958 553.522583,562.686523 555.012695,564.215149 
	C565.589722,575.065186 576.283264,585.801575 587.413574,597.106384 
M596.942078,651.114990 
	C596.653442,647.744202 593.838257,646.137756 591.804199,644.108093 
	C520.563965,573.019958 449.280151,501.975433 377.975677,430.951660 
	C375.063660,428.051117 372.417542,424.816681 368.489685,422.293640 
	C361.270599,429.504669 353.460846,435.904297 346.844879,443.362610 
	C347.867554,445.893921 349.697845,447.164307 351.204285,448.672485 
	C387.474335,484.984344 423.762726,521.277893 460.055695,557.566772 
	C497.056061,594.562988 534.095825,631.519958 571.012390,668.599609 
	C574.033691,671.634216 576.152405,671.983093 579.197815,668.846191 
	C584.880676,662.992676 590.815247,657.383606 596.942078,651.114990 
M390.532898,570.967651 
	C418.281311,598.816650 446.037292,626.658142 473.775482,654.517334 
	C492.228912,673.051208 510.705231,691.562866 529.045776,710.208008 
	C531.892700,713.102234 533.908386,713.367126 536.778809,710.346436 
	C541.020935,705.882263 545.393555,701.490723 550.106873,697.541199 
	C554.185364,694.123596 553.421753,691.844849 549.991211,688.420349 
	C477.365479,615.921631 404.843231,543.319397 332.282623,470.755432 
	C330.185730,468.658447 328.314575,466.264496 325.086121,464.610992 
	C320.224457,469.209686 315.250580,473.831726 310.370911,478.551208 
	C304.260406,484.461182 304.244324,484.545105 310.231689,490.548920 
	C336.815033,517.205444 363.429199,543.831238 390.532898,570.967651 
M249.879135,330.350342 
	C238.715836,341.310516 227.646317,352.368378 216.361221,363.201691 
	C206.361877,372.800659 205.472809,384.728851 214.757233,394.945435 
	C222.029419,402.947784 229.795242,410.499634 237.227448,418.359711 
	C239.457184,420.717743 241.256744,420.666138 243.501328,418.478790 
	C263.050293,399.428314 282.617676,380.396576 302.243469,361.425323 
	C304.660461,359.088959 304.904724,357.159027 302.446960,354.748138 
	C294.487732,346.940582 286.897919,338.729156 278.614990,331.286285 
	C269.448761,323.049683 260.733276,322.965729 249.879135,330.350342 
M305.231964,398.728424 
	C292.261200,411.428162 279.306244,424.144104 266.311462,436.819214 
	C261.451965,441.559204 261.402039,441.714417 266.273499,446.593079 
	C270.509735,450.835632 274.998657,454.854950 278.937347,459.356628 
	C282.284393,463.182220 284.656342,462.997833 288.211578,459.465637 
	C306.049957,441.742767 324.128296,424.261688 342.075989,406.648438 
	C343.947906,404.811401 346.059937,403.113251 347.378479,400.255035 
	C341.315796,393.304810 334.796082,386.698700 328.028381,380.332550 
	C325.814362,378.249878 324.385437,380.286560 323.006622,381.599274 
	C317.217743,387.110626 311.490173,392.686432 305.231964,398.728424 
M616.694641,693.674255 
	C614.705627,688.709595 613.945007,683.225159 610.094421,677.335999 
	C593.727051,694.953735 577.944336,711.942139 562.161621,728.930542 
	C561.649475,728.472595 562.288940,729.014954 563.027893,729.293396 
	C577.975159,734.927612 592.942200,740.509216 607.881104,746.165283 
	C610.161499,747.028564 611.702209,746.094910 613.223267,744.625366 
	C617.414734,740.575623 621.537109,736.447449 625.868958,732.552856 
	C628.155640,730.497009 628.711426,728.556946 627.638672,725.570618 
	C623.928040,715.240845 620.496216,704.810913 616.694641,693.674255 
z"/>
<path fill="#000000" opacity="1.000000" stroke="none" 
	d="
M597.239380,379.401367 
	C603.897217,357.705872 610.409851,336.385620 616.944824,315.072174 
	C619.019226,308.306488 623.154236,303.653625 630.490967,302.781891 
	C641.825867,301.435059 649.220276,311.751007 645.508240,324.163208 
	C639.692810,343.608490 633.520447,362.946960 627.513123,382.334961 
	C617.764893,413.796600 608.000732,445.253357 598.308228,476.732178 
	C596.334717,483.141571 592.483948,487.683075 585.859802,489.074188 
	C580.624634,490.173584 575.865662,488.569000 572.446594,484.271942 
	C568.133118,478.850739 568.846130,472.751953 570.685608,466.679626 
	C579.463196,437.704315 588.292114,408.744537 597.239380,379.401367 
z"/>
<path fill="#000000" opacity="1.000000" stroke="none" 
	d="
M700.101440,385.901367 
	C690.083984,376.111176 680.268188,366.619843 670.574402,357.005524 
	C663.602783,350.091095 663.349182,340.208588 669.788452,333.912445 
	C676.016663,327.822693 684.965576,328.398590 692.033203,335.336884 
	C707.953369,350.965668 723.661316,366.819763 739.892334,382.118835 
	C747.538269,389.325714 749.421326,400.444977 739.737488,409.339050 
	C723.191772,424.535492 707.564087,440.728333 691.431458,456.379669 
	C686.718323,460.952209 680.822754,461.845764 674.727173,459.769348 
	C668.977051,457.810608 666.048462,453.265472 665.168030,447.409363 
	C664.353699,441.992645 666.688782,437.772858 670.452515,434.083923 
	C681.390259,423.363800 692.339172,412.653564 703.157166,401.813263 
	C710.501831,394.453461 710.145630,395.889954 703.215454,388.939606 
	C702.274841,387.996246 701.309387,387.077637 700.101440,385.901367 
z"/>
<path fill="#000000" opacity="1.000000" stroke="none" 
	d="
M487.289734,373.297119 
	C500.092773,360.630707 512.548584,348.108307 525.252625,335.842987 
	C534.671570,326.749268 548.471741,329.627960 551.774292,341.207428 
	C553.657959,347.812164 551.362488,353.239838 546.565430,357.906891 
	C536.891663,367.318512 527.241882,376.756561 517.697021,386.298553 
	C508.196686,395.796112 508.283844,395.831604 517.751892,405.015015 
	C527.679504,414.644043 537.745789,424.141022 547.391785,434.046021 
	C556.613831,443.515656 552.733643,457.551910 540.327576,460.798096 
	C535.175964,462.146118 530.579956,460.704895 526.936829,457.195282 
	C509.416718,440.317291 491.929535,423.401093 474.691620,406.236389 
	C468.796661,400.366516 469.216309,391.625732 475.000793,385.534668 
	C478.899780,381.429077 483.024994,377.538330 487.289734,373.297119 
z"/>
</svg>